<svg xmlns="http://www.w3.org/2000/svg" viewBox="0 0 420.2 776.2"><defs><style>.cls-1{fill:#fff;}</style></defs><g id="Ebene_2" data-name="Ebene 2"><g id="Ebene_1-2" data-name="Ebene 1"><path class="cls-1" d="M408.73,182.41,238.5,12.19l-.71-.72a39.53,39.53,0,0,0-3-2.69c-.25-.21-.51-.41-.77-.61-.42-.33-.84-.64-1.27-.94L232,6.69l-.75-.5-.9-.56-.75-.44-.82-.46-.84-.44-.48-.24-.77-.38a38.86,38.86,0,0,0-6.34-2.31l-.92-.24L218.5.91l-.92-.19-.93-.17-.81-.13L214.59.26l-.74-.08L212.92.1a40.83,40.83,0,0,0-5.64,0l-.93.08-.74.08-1.25.16-.81.13-.93.17-.92.19-.92.21-.92.24a38.86,38.86,0,0,0-6.34,2.31l-.77.38-.48.24-.84.44-.82.46-.75.44-.9.56-.75.5-.78.54c-.43.3-.85.61-1.27.94-.26.2-.52.4-.77.61a39.53,39.53,0,0,0-3,2.69l-.71.72L11.47,182.41a39.16,39.16,0,0,0,55.38,55.38L170.94,133.7V737a39.16,39.16,0,0,0,78.32,0V133.7L353.35,237.79a39.16,39.16,0,0,0,55.38-55.38ZM244.07,19.67q-.7-1.23-1.5-2.4Q243.38,18.45,244.07,19.67Zm-66.44-2.4q-.8,1.17-1.5,2.4Q176.82,18.45,177.63,17.27Z"/></g></g></svg>